# AST/ASF file generated using VICON BodyLanguage
# -----------------------------------------------
:version 1.10
:name VICON
:units
  mass 1.0
  length 0.45
  angle deg
:documentation
   .ast/.asf automatically generated from VICON data using
   VICON BodyBuilder and BodyLanguage model FoxedUp or BRILLIANT.MOD
:root
   order TX TY TZ RX RY RZ
   axis XYZ
   position 0 0 0  
   orientation 0 0 0 
:bonedata
  begin
     id 1 
     name lhipjoint
     direction 0.693937 -0.600361 0.397515 
     length 2.37164 
     axis 0 0 0  XYZ
  end
  begin
     id 2 
     name lfemur
     direction 0.34202 -0.939693 0  
     length 6.18497  
     axis 0 0 20  XYZ
    dof rx ry rz
    limits (-160.0 20.0)
           (-70.0 70.0)
           (-60.0 70.0)
  end
  begin
     id 3 
     name ltibia
     direction 0.34202 -0.939693 0   
     length 6.91601   
     axis 0 0 20   XYZ
    dof rx
    limits (-10.0 170.0)
  end
  begin
     id 4 
     name lfoot
     direction 0.0978718 -0.2689 0.958182   
     length 1.81453   
     axis -90 7.62852e-016 20   XYZ
    dof rx rz
    limits (-45.0 90.0)
           (-70.0 20.0)
  end
  begin
     id 5 
     name ltoes
     direction 1.53569e-011 -4.21951e-011 1   
     length 0.912052   
     axis -90 7.62852e-016 20   XYZ
    dof rx
    limits (-90.0 20.0)
  end
  begin
     id 6 
     name rhipjoint
     direction -0.643996 -0.637876 0.422354   
     length 2.23216  
     axis 0 0 0  XYZ 
  end
  begin
     id 7 
     name rfemur
     direction -0.34202 -0.939693 0   
     length 6.15404   
     axis 0 0 -20   XYZ
    dof rx ry rz
    limits (-160.0 20.0)
           (-70.0 70.0)
           (-70.0 60.0)
  end
  begin
     id 8 
     name rtibia
     direction -0.34202 -0.939693 0   
     length 6.86744   
     axis 0 0 -20   XYZ
    dof rx
    limits (-10.0 170.0)
 end
 begin
     id 9 
     name rfoot
     direction -0.118701 -0.326127 0.937844   
     length 1.9243  
     axis -90 -7.62852e-016 -20   XYZ
    dof rx rz
    limits (-45.0 90.0)
           (-20.0 70.0)
  end
  begin
     id 10 
     name rtoes
     direction -1.5356e-011 -4.2181e-011 1   
     length 0.958865   
     axis -90 -7.62852e-016 -20   XYZ
    dof rx
    limits (-90.0 20.0)
  end
  begin
     id 11 
     name lowerback
     direction 0.0310826 0.968686 -0.246334   
     length 2.00021   
     axis 0 0 0   XYZ
    dof rx ry rz
    limits (-20.0 45.0)
           (-30.0 30.0)
           (-30.0 30.0)
  end
  begin
     id 12 
     name upperback
     direction -0.0152834 0.999474 -0.0286152   
     length 2.03728   
     axis 0 0 0   XYZ
    dof rx ry rz
    limits (-20.0 45.0)
           (-30.0 30.0)
           (-30.0 30.0)
  end
  begin
     id 13 
     name thorax
     direction -0.0323701 0.996236 0.0804149   
     length 2.16   
     axis 0 0 0   XYZ
    dof rx ry rz
    limits (-20.0 45.0)
           (-30.0 30.0)
           (-30.0 30.0)
  end
  begin
     id 14 
     name lowerneck
     direction 0.0307935 0.982251 0.185027   
     length 1.43558   
     axis 0 0 0   XYZ
    dof rx ry rz
    limits (-20.0 45.0)
           (-30.0 30.0)
           (-30.0 30.0)
  end
  begin
     id 15 
     name upperneck
     direction -0.0927153 0.994775 0.0427454   
     length 1.44603   
     axis 0 0 0   XYZ
    dof rx ry rz
    limits (-20.0 45.0)
           (-30.0 30.0)
           (-30.0 30.0)
  end
  begin
     id 16
     name head
     direction -0.0341265 0.999406 -0.00472033  
     length 1.45931  
     axis 0 0 0   XYZ
    dof rx ry rz
    limits (-20.0 45.0)
           (-30.0 30.0)
           (-30.0 30.0)
  end
  begin
     id 17 
     name lclavicle
     direction 0.820755 0.555306 -0.134151  
     length 2.66075  
     axis 0 0 0   XYZ
    dof ry rz
    limits (-20.0 10.0)
           (0.0 20.0)
  end
  begin
     id 18 
     name lhumerus
     direction 1 -4.48971e-011 5.24853e-027   
     length 5.0546   
     axis -180 -30 -90   XYZ
    dof rx ry rz
    limits (-60.0 90.0)
           (-90.0 90.0)
           (-90.0 90.0)
  end
  begin
     id 19
     name lradius
     direction 1 -4.48971e-011 2.76575e-028   
     length 3.39013   
     axis -180 -30 -90   XYZ
    dof rx
    limits (-10.0 170.0)
  end
  begin
     id 20
     name lwrist
     direction 1 -4.48939e-011 -2.27826e-027   
     length 1.69507   
     axis 2.17013e-015 90 90   XYZ
    dof ry
    limits (-180.0 0.0)
 end
  begin
     id 21 
     name lhand
     direction 1 -4.49009e-011 -4.55652e-027   
     length 0.572425   
     axis 2.90745e-015 90 90   XYZ
    dof rx rz
    limits (-90.0 90.0)
           (-45.0 45.0)
  end
  begin
     id 22 
     name lfingers
     direction 1 -4.48955e-011 -9.11303e-027   
     length 0.461504   
     axis 5.81489e-015 90 90   XYZ
    dof rx
    limits (0.0 90.0)
  end
  begin
     id 23
     name lthumb
     direction 0.707107 -6.34929e-011 0.707107   
     length 0.66263   
     axis -90 45 2.85299e-015   XYZ
    dof rx rz
    limits (-45.0 45.0)
           (-45.0 45.0)
  end
  begin
     id 24 
     name rclavicle
     direction -0.754477 0.632921 -0.173712   
     length 2.73081  
     axis 0 0 0   XYZ 
    dof ry rz
    limits (-10.0 20.0)
           (-20.0 0.0)
  end
  begin
     id 25 
     name rhumerus
     direction -1 -4.48969e-011 5.1496e-027  
     length 5.0701   
     axis -180 30 90   XYZ
    dof rx ry rz
    limits (-90.0 60.0)
           (-90.0 90.0)
           (-90.0 90.0)
  end
  begin
     id 26 
     name rradius
     direction -1 -4.48967e-011 -7.15624e-028   
     length 3.14957   
     axis -180 30 90   XYZ
    dof rx
    limits (-10.0 170.0)
  end
  begin
     id 27 
     name rwrist
     direction -1 -4.48938e-011 -2.27826e-027   
     length 1.57479   
     axis 2.17013e-015 -90 -90   XYZ
    dof ry
    limits (-180.0 0.0)
  end
  begin
     id 28
     name rhand
     direction -1 -4.49008e-011 -4.55652e-027   
     length 0.718191   
     axis 2.90745e-015 -90 -90   XYZ
    dof rx rz
    limits (-90.0 90.0)
           (-45.0 45.0)
  end
  begin
     id 29
     name rfingers
     direction -1 -4.48953e-011 -9.11303e-027   
     length 0.579024   
     axis 5.81489e-015 -90 -90   XYZ
    dof rx
    limits (0.0 90.0)
  end
  begin
     id 30
     name rthumb
     direction -0.707107 -6.34937e-011 0.707107   
     length 0.831366   
     axis -90 -45 -2.85299e-015   XYZ
    dof rx rz
    limits (-45.0 45.0)
           (-45.0 45.0)
  end
:hierarchy
  begin
    root lhipjoint rhipjoint lowerback
    lhipjoint lfemur
    lfemur ltibia
    ltibia lfoot
    lfoot ltoes
    rhipjoint rfemur
    rfemur rtibia
    rtibia rfoot
    rfoot rtoes
    lowerback upperback
    upperback thorax
    thorax lowerneck lclavicle rclavicle
    lowerneck upperneck
    upperneck head
    lclavicle lhumerus
    lhumerus lradius
    lradius lwrist
    lwrist lhand lthumb
    lhand lfingers
    rclavicle rhumerus
    rhumerus rradius
    rradius rwrist
    rwrist rhand rthumb
    rhand rfingers
  end

#!OML:ASF H:\Male1\Project 1\Capture day 1\Session 1\Male1.ASF
:FULLY-SPECIFIED
:DEGREES
35
root 21.5362 15.1522 -0.5787 146.956 -86.8575 -150.023
lowerback 6.12549 0.882139 0.686022
upperback 5.48987 1.03779 -0.536212
thorax 2.24845 0.478498 -0.980512
lowerneck -3.16214 1.74531 6.4454
upperneck 0.971472 2.10856 -2.43761
head 0.945462 1.05013 -1.82983
rclavicle -6.4605e-015 5.56597e-015
rhumerus -26.7573 -14.9174 -86.7291
rradius 40.8381
rwrist -42.8851
rhand -29.143 -8.02936
rfingers 7.12502
rthumb -2.48978 -37.9946
lclavicle -6.4605e-015 5.56597e-015
lhumerus -18.2845 10.0962 76.766
lradius 21.5542
lwrist -15.1423
lhand -13.0974 9.87009
lfingers 7.12502
lthumb 12.9993 39.4451
rfemur -8.41109 14.8496 23.7187
rtibia 32.5587
rfoot -36.9046 -32.2499
rtoes -10.7416
lfemur -9.87458 -15.2169 -15.5775
ltibia 35.0067
lfoot -26.0576 24.5389
ltoes -7.84362
36
root 21.5345 15.1525 -0.578123 145.909 -86.8846 -148.962
lowerback 6.21875 0.904545 0.668176
upperback 5.44138 1.06901 -0.581902
thorax 2.14759 0.494354 -1.02052
lowerneck -3.04556 1.73286 6.48687
upperneck 0.884508 2.10164 -2.59321
head 0.900702 1.04473 -1.8888
rclavicle -6.06293e-015 1.19271e-015
rhumerus -26.8281 -14.7955 -86.7296
rradius 40.6919
rwrist -40.5775
rhand -27.2282 -7.16901
rfingers 7.12502
rthumb -0.640509 -37.1478
lclavicle -6.06293e-015 1.19271e-015
lhumerus -18.2476 10.2749 76.3872
lradius 21.6855
lwrist -15.0145
lhand -13.3456 10.0738
lfingers 7.12502
lthumb 12.76 39.6639
rfemur -8.40623 14.78 23.7468
rtibia 32.5544
rfoot -36.9413 -32.1916
rtoes -10.5729
lfemur -9.88574 -15.2791 -15.546
ltibia 35.0066
lfoot -26.1183 24.5843
ltoes -7.92783
37
root 21.5318 15.153 -0.577239 144.612 -86.8593 -147.636
lowerback 6.20997 0.881756 0.598183
upperback 5.45899 1.03469 -0.547273
thorax 2.16781 0.474198 -0.94401
lowerneck -2.95591 1.67984 6.14941
upperneck 0.832046 2.047 -2.43454
head 0.858108 1.01765 -1.77782
rclavicle -9.93923e-017 -1.11319e-014
rhumerus -26.7122 -15.0222 -86.5982
rradius 40.5294
rwrist -38.2612
rhand -24.6672 -6.26109
rfingers 7.12502
rthumb 1.83301 -36.233
lclavicle -9.93923e-017 -1.11319e-014
lhumerus -18.2235 10.4522 76.1291
lradius 22.0459
lwrist -14.5399
lhand -13.6461 10.0714
lfingers 7.12502
lthumb 12.4703 39.6794
rfemur -8.41273 14.7235 23.8195
rtibia 32.5402
rfoot -36.8653 -32.2294
rtoes -10.3151
lfemur -9.90978 -15.3222 -15.4674
ltibia 35.0211
lfoot -26.1771 24.59
ltoes -8.04077
38
root 21.5297 15.1532 -0.576261 144.185 -86.8762 -147.17
lowerback 6.11863 0.843249 0.474311
upperback 5.50649 0.976723 -0.526224
thorax 2.2638 0.440822 -0.84902
lowerneck -3.08598 1.927 6.15255
upperneck 0.668526 2.36905 -2.53909
head 0.845496 1.17448 -1.80546
rclavicle -1.48095e-014 8.34896e-015
rhumerus -26.5611 -15.4452 -86.505
rradius 40.7002
rwrist -37.447
rhand -22.5455 -5.41378
rfingers 7.12502
rthumb 3.88201 -35.3582
lclavicle -1.48095e-014 8.34896e-015
lhumerus -18.2292 10.4192 75.9451
lradius 22.5924
lwrist -13.509
lhand -13.867 9.90291
lfingers 7.12502
lthumb 12.2573 39.5237
rfemur -8.42271 14.7298 23.8239
rtibia 32.505
rfoot -36.8281 -32.3133
rtoes -9.64022
lfemur -9.96637 -15.3607 -15.4533
ltibia 35.0566
lfoot -26.1487 24.6486
ltoes -8.29444
39
root 21.5282 15.1537 -0.574929 144.186 -86.8526 -147.161
lowerback 6.04984 0.873291 0.463236
upperback 5.56043 1.0149 -0.585175
thorax 2.35976 0.460276 -0.903684
lowerneck -2.94419 1.83313 6.00367
upperneck 0.659339 2.25714 -2.44264
head 0.808872 1.11982 -1.75044
rclavicle 3.18055e-015 7.95139e-016
rhumerus -26.3828 -16.2376 -86.4573
rradius 40.9476
rwrist -37.9144
rhand -21.3279 -5.26891
rfingers 7.12502
rthumb 5.05773 -35.1885
lclavicle 3.18055e-015 7.95139e-016
lhumerus -18.2439 10.0546 75.7812
lradius 23.3084
lwrist -12.2935
lhand -13.9099 9.65468
lfingers 7.12502
lthumb 12.216 39.2779
rfemur -8.40436 14.7716 23.8334
rtibia 32.4541
rfoot -36.8392 -32.3137
rtoes -9.55615
lfemur -9.99431 -15.3534 -15.4469
ltibia 35.1069
lfoot -26.1403 24.656
ltoes -8.09288
40
root 21.528 15.1546 -0.573369 143.511 -86.7111 -146.525
lowerback 6.09667 0.947283 0.58096
upperback 5.59051 1.11666 -0.656759
thorax 2.37126 0.51556 -1.04772
lowerneck -2.95202 1.95728 6.24062
upperneck 0.479377 2.41322 -2.52338
head 0.765909 1.19491 -1.81624
rclavicle 7.85199e-015 -5.56597e-015
rhumerus -26.0861 -17.2367 -86.4417
rradius 40.9351
rwrist -38.9866
rhand -21.228 -5.94274
rfingers 7.12502
rthumb 5.15416 -35.8601
lclavicle 7.85199e-015 -5.56597e-015
lhumerus -18.3232 9.51032 75.6232
lradius 24.1621
lwrist -11.0168
lhand -14.0078 9.74704
lfingers 7.12502
lthumb 12.1216 39.3759
rfemur -8.35622 14.8342 23.963
rtibia 32.4127
rfoot -36.7556 -32.3351
rtoes -10.4785
lfemur -9.94406 -15.2962 -15.3473
ltibia 35.1483
lfoot -26.2644 24.5275
ltoes -7.34802
41
root 21.5285 15.155 -0.572067 142.667 -86.531 -145.674
lowerback 6.12778 0.98888 0.669563
upperback 5.57856 1.17578 -0.679378
thorax 2.34554 0.548293 -1.12351
lowerneck -2.97462 2.07119 6.40462
upperneck 0.506833 2.55831 -2.57792
head 0.78912 1.26753 -1.86048
rclavicle -2.48481e-015 7.15625e-015
rhumerus -25.6954 -17.9396 -86.5001
rradius 40.7056
rwrist -40.4424
rhand -22.2635 -6.76781
rfingers 7.12502
rthumb 4.15432 -36.707
lclavicle -2.48481e-015 7.15625e-015
lhumerus -18.6123 9.02022 75.4732
lradius 25.193
lwrist -9.61149
lhand -13.8982 10.0945
lfingers 7.12502
lthumb 12.2272 39.7171
rfemur -8.38428 14.9224 24.1249
rtibia 32.4044
rfoot -36.6298 -32.4454
rtoes -11.2343
lfemur -9.93102 -15.224 -15.1825
ltibia 35.161
lfoot -26.3818 24.3505
ltoes -6.70316
42
root 21.5272 15.1544 -0.56874 144.12 -86.4981 -147.082
lowerback 6.02306 0.991235 0.533207
upperback 5.59902 1.17365 -0.712886
thorax 2.42252 0.543696 -1.07965
lowerneck -2.99016 2.25394 6.56882
upperneck 0.50647 2.79686 -2.70546
head 0.808767 1.38592 -1.92685
rclavicle 8.24956e-015 1.19271e-015
rhumerus -25.1986 -18.3029 -86.6641
rradius 40.4689
rwrist -42.0926
rhand -23.6277 -7.49817
rfingers 7.12502
rthumb 2.83688 -37.459
lclavicle 8.24956e-015 1.19271e-015
lhumerus -18.9892 8.69354 75.3892
lradius 26.276
lwrist -8.33423
lhand -13.9516 10.0196
lfingers 7.12502
lthumb 12.1758 39.6453
rfemur -8.45948 14.8763 24.0281
rtibia 32.4309
rfoot -36.5501 -32.3597
rtoes -11.3708
lfemur -9.94715 -15.2191 -15.2475
ltibia 35.1444
lfoot -26.4609 24.3203
ltoes -6.51843
43
root 21.5252 15.1539 -0.564516 147.796 -86.5708 -150.767
lowerback 5.92929 1.01207 0.246486
upperback 5.66688 1.18914 -0.801578
thorax 2.54106 0.542918 -1.00892
lowerneck -3.03181 2.30289 6.58891
upperneck 0.536868 2.85767 -2.66212
head 0.828041 1.41686 -1.91462
rclavicle 4.96962e-016 -4.77083e-015
rhumerus -24.7676 -18.5675 -86.8942
rradius 40.5595
rwrist -43.6804
rhand -24.9915 -8.48507
rfingers 7.12502
rthumb 1.51979 -38.4594
lclavicle 4.96962e-016 -4.77083e-015
lhumerus -19.2173 8.4623 75.3816
lradius 27.196
lwrist -7.2687
lhand -14.2831 9.59765
lfingers 7.12502
lthumb 11.8562 39.242
rfemur -8.48477 14.8021 23.7413
rtibia 32.4871
rfoot -36.525 -32.1624
rtoes -11.199
lfemur -9.88265 -15.2513 -15.5437
ltibia 35.1036
lfoot -26.5107 24.5609
ltoes -6.93121
44
root 21.5248 15.1538 -0.560801 149.7 -86.5476 -152.687
lowerback 5.91827 1.07166 0.12991
upperback 5.69396 1.26357 -0.87567
thorax 2.57593 0.577044 -1.02218
lowerneck -3.22318 2.36474 6.73861
upperneck 0.669561 2.92153 -2.6881
head 0.90995 1.44968 -1.94691
rclavicle -1.42131e-014 8.74653e-015
rhumerus -24.4297 -18.8632 -87.0771
rradius 40.5904
rwrist -44.5164
rhand -26.0363 -9.22685
rfingers 7.12502
rthumb 0.510666 -39.206
lclavicle -1.42131e-014 8.74653e-015
lhumerus -19.3168 8.33959 75.4025
lradius 27.9199
lwrist -6.46371
lhand -14.5631 9.4688
lfingers 7.12502
lthumb 11.5861 39.1285
rfemur -8.51847 14.8244 23.6243
rtibia 32.5498
rfoot -36.5073 -32.1107
rtoes -11.1025
lfemur -9.82484 -15.2386 -15.6692
ltibia 35.0626
lfoot -26.4369 24.8204
ltoes -7.58375
45
root 21.5234 15.1533 -0.555803 149.901 -86.4879 -152.889
lowerback 5.91062 1.1446 0.141819
upperback 5.68808 1.36175 -0.917886
thorax 2.57744 0.627446 -1.07564
lowerneck -3.03342 2.24257 6.55426
upperneck 0.637011 2.77443 -2.44292
head 0.850733 1.37853 -1.83828
rclavicle 2.127e-014 -1.19271e-015
rhumerus -24.1035 -19.0149 -87.2292
rradius 40.3545
rwrist -44.5914
rhand -26.7424 -9.35896
rfingers 7.12502
rthumb -0.171305 -39.3386
lclavicle 2.127e-014 -1.19271e-015
lhumerus -19.331 8.30383 75.4699
lradius 28.3842
lwrist -5.96024
lhand -15.2518 9.63777
lfingers 7.12502
lthumb 10.9219 39.3337
rfemur -8.558 14.8104 23.6133
rtibia 32.6095
rfoot -36.4008 -32.1271
rtoes -11.3933
lfemur -9.78975 -15.2186 -15.6757
ltibia 35.0276
lfoot -26.2894 24.9178
ltoes -7.99363
46
root 21.5208 15.1521 -0.550743 149.867 -86.423 -152.872
lowerback 5.95342 1.22164 0.17468
upperback 5.65708 1.46641 -0.95591
thorax 2.52556 0.681815 -1.13798
lowerneck -3.04492 2.3315 6.81441
upperneck 0.510698 2.88344 -2.56862
head 0.825723 1.43029 -1.92401
rclavicle 1.6201e-014 -9.14409e-015
rhumerus -23.9509 -18.8925 -87.4192
rradius 40.2841
rwrist -44.3455
rhand -27.3274 -9.28064
rfingers 7.12502
rthumb -0.736333 -39.2591
lclavicle 1.6201e-014 -9.14409e-015
lhumerus -19.3437 8.25448 75.5734
lradius 28.6527
lwrist -5.55041
lhand -15.9914 9.78811
lfingers 7.12502
lthumb 10.2084 39.5204
rfemur -8.55517 14.7987 23.6281
rtibia 32.6461
rfoot -36.316 -32.12
rtoes -11.6164
lfemur -9.73246 -15.2218 -15.677
ltibia 35.0111
lfoot -26.3976 24.8142
ltoes -7.24603
47
root 21.5176 15.1514 -0.545616 151.452 -86.4205 -154.472
lowerback 6.01148 1.23819 0.0540045
upperback 5.61459 1.48471 -0.992194
thorax 2.44717 0.687756 -1.11005
lowerneck -2.963 2.26638 6.80111
upperneck 0.586265 2.80388 -2.57883
head 0.831492 1.39225 -1.92717
rclavicle -1.89839e-014 1.78906e-014
rhumerus -23.8225 -18.3985 -87.6579
rradius 40.2716
rwrist -43.9286
rhand -27.5454 -9.05209
rfingers 7.12502
rthumb -0.946857 -39.0297
lclavicle -1.89839e-014 1.78906e-014
lhumerus -19.4647 8.44 75.6772
lradius 28.8515
lwrist -5.31047
lhand -16.2846 10.0521
lfingers 7.12502
lthumb 9.92555 39.7981
rfemur -8.52861 14.7594 23.5097
rtibia 32.6317
rfoot -36.2173 -32.1282
rtoes -11.905
lfemur -9.69329 -15.1971 -15.8092
ltibia 35.0367
lfoot -26.6078 24.6883
ltoes -6.31268
48
root 21.5129 15.1507 -0.540249 152.541 -86.4215 -155.57
lowerback 5.97415 1.22627 -0.0585833
upperback 5.6197 1.46488 -1.00083
thorax 2.46999 0.67425 -1.05437
lowerneck -2.83025 2.22581 6.64867
upperneck 0.534739 2.76331 -2.48677
head 0.785462 1.37238 -1.8716
rclavicle -8.74653e-015 1.59028e-015
rhumerus -23.5606 -17.8042 -87.909
rradius 40.1119
rwrist -43.3589
rhand -27.342 -8.5264
rfingers 7.12502
rthumb -0.750441 -38.5048
lclavicle -8.74653e-015 1.59028e-015
lhumerus -19.4856 8.79476 75.8049
lradius 28.8566
lwrist -5.36082
lhand -16.3501 10.4036
lfingers 7.12502
lthumb 9.86243 40.1526
rfemur -8.47549 14.7773 23.4279
rtibia 32.5853
rfoot -36.1376 -32.2226
rtoes -12.3422
lfemur -9.68764 -15.1105 -15.9041
ltibia 35.0932
lfoot -26.5564 24.6947
ltoes -6.52333
